<mxfile host="app.diagrams.net" modified="2024-04-17T09:51:14.769Z" agent="Mozilla/5.0 (Windows NT 10.0; Win64; x64) AppleWebKit/537.36 (KHTML, like Gecko) Chrome/123.0.0.0 Safari/537.36" etag="W-HBXvGACuz7qNjcP5cn" version="24.2.5" type="github">
  <diagram name="Page-1" id="099fd60b-425b-db50-ffb0-6b813814b670">
    <mxGraphModel dx="619" dy="379" grid="1" gridSize="10" guides="1" tooltips="1" connect="1" arrows="1" fold="1" page="1" pageScale="1" pageWidth="850" pageHeight="1100" background="none" math="0" shadow="0">
      <root>
        <mxCell id="0" />
        <mxCell id="1" parent="0" />
        <mxCell id="DIDLmgyXbt5s7lMua3Gh-99" value="" style="group" vertex="1" connectable="0" parent="1">
          <mxGeometry x="200" y="400" width="440" height="160" as="geometry" />
        </mxCell>
        <mxCell id="DIDLmgyXbt5s7lMua3Gh-39" value="" style="rounded=0;whiteSpace=wrap;html=1;fillColor=#d5e8d4;strokeColor=#000000;" vertex="1" parent="DIDLmgyXbt5s7lMua3Gh-99">
          <mxGeometry width="440" height="160" as="geometry" />
        </mxCell>
        <mxCell id="DIDLmgyXbt5s7lMua3Gh-44" value="" style="triangle;whiteSpace=wrap;html=1;fillColor=none;" vertex="1" parent="DIDLmgyXbt5s7lMua3Gh-99">
          <mxGeometry y="140" width="10" height="13.33" as="geometry" />
        </mxCell>
        <mxCell id="DIDLmgyXbt5s7lMua3Gh-97" value="&lt;font face=&quot;Comic Sans MS&quot; style=&quot;font-size: 20px;&quot;&gt;&lt;b&gt;&lt;u&gt;Module Name&lt;/u&gt;&lt;/b&gt;&lt;/font&gt;" style="text;align=center;html=1;verticalAlign=middle;whiteSpace=wrap;rounded=0;fontColor=#16a085;" vertex="1" parent="DIDLmgyXbt5s7lMua3Gh-99">
          <mxGeometry y="73.33333333333333" width="440" height="20" as="geometry" />
        </mxCell>
        <mxCell id="DIDLmgyXbt5s7lMua3Gh-107" value="" style="edgeStyle=orthogonalEdgeStyle;fontSize=12;html=1;endArrow=blockThin;endFill=1;rounded=0;strokeWidth=2;endSize=4;startSize=4;strokeColor=#EA4335;dashed=0;" edge="1" parent="1">
          <mxGeometry width="100" relative="1" as="geometry">
            <mxPoint x="570" y="320" as="sourcePoint" />
            <mxPoint x="670" y="320" as="targetPoint" />
          </mxGeometry>
        </mxCell>
        <mxCell id="DIDLmgyXbt5s7lMua3Gh-108" value="" style="endArrow=classic;html=1;rounded=0;strokeWidth=2;endSize=4;startSize=4;strokeColor=#9e9e9e;edgeStyle=orthogonalEdgeStyle;" edge="1" parent="1">
          <mxGeometry width="50" height="50" relative="1" as="geometry">
            <mxPoint x="360" y="160" as="sourcePoint" />
            <mxPoint x="360" y="280" as="targetPoint" />
          </mxGeometry>
        </mxCell>
      </root>
    </mxGraphModel>
  </diagram>
</mxfile>
